# xmcd
#
# Track frame offsets:
#	150
#	17335
#	33935
#	47680
#	66887
#	79142
#	95300
#	109697
#	128525
#	149892
#
# Disc length: 2214 seconds
#
# Revision: 0
# Processed by: cddbd v1.4PL0 Copyright (c) Steve Scherf et al.
# Submitted via: EasyCDDAExtractor 5.0.2.1
#
DISCID=7c08a40a
DTITLE=Billy Peek - The Answer
DYEAR=1992
DGENRE=Blues
TTITLE0=The Answer
TTITLE1=Saint Louie Woman
TTITLE2=Choo Choo Train
TTITLE3=Club Hootchie Coo
TTITLE4=Home Grown Rocker
TTITLE5=The Hammer
TTITLE6=You Can't Hide
TTITLE7=Sippin' On A Bud
TTITLE8=Sugar Bush
TTITLE9=Sweet Home Chicago
EXTD=
EXTT0=
EXTT1=
EXTT2=
EXTT3=
EXTT4=
EXTT5=
EXTT6=
EXTT7=
EXTT8=
EXTT9=
PLAYORDER=
